<svg xmlns="http://www.w3.org/2000/svg" width="1280" height="480" viewBox="0 0 1280 480" role="img"><title>Dryforge — Your agent works like a senior developer. A bounded-autonomy plugin harness for coding agents. Intent to implementation: ready, then go.</title><style>@keyframes travel{to{offset-distance:100%}}@keyframes breathe{0%,100%{opacity:.5}50%{opacity:1}}@keyframes flow{to{stroke-dashoffset:-64}}.flow{stroke-dasharray:5 11;animation:flow 6s linear infinite}.pulse{animation:breathe 5s ease-in-out infinite}.m1{offset-path:path("M1070 42 A184 184 0 1 1 1069.9 42");animation:travel 9s linear infinite}@media (prefers-reduced-motion: reduce){*{animation:none!important}}</style><rect x="0.5" y="0.5" width="1279" height="479" rx="24" fill="#ffffff" stroke="#e4e4e7" /><defs><pattern id="grid" width="24" height="24" patternUnits="userSpaceOnUse"><circle cx="12" cy="12" r="1" fill="#71717a" opacity=".25" /></pattern><clipPath id="clip"><rect x="860" y="24" width="396" height="432" rx="24" /></clipPath></defs><rect x="860" y="24" width="396" height="432" rx="24" fill="url(#grid)" stroke="none" /><path d="M64 64H184" fill="none" stroke="#0284c7" stroke-width="3" stroke-linecap="round" stroke-linejoin="round" /><circle cx="199" cy="64" r="4" fill="#d97706" /><path aria-label="Dryforge" d="M98 198H73V181H97Q106.4 181 112.7 177.7Q119 174.3 122.2 167.4Q125.4 160.5 125.4 149.7Q125.4 138.9 122.1 132Q118.9 125.1 112.7 121.8Q106.4 118.5 97.2 118.5H72.5V101.4H98.3Q112.8 101.4 123.3 107.2Q133.8 113 139.4 123.8Q145.1 134.6 145.1 149.7Q145.1 164.8 139.4 175.6Q133.8 186.4 123.2 192.2Q112.7 198 98 198ZM83.8 101.4V198H64V101.4ZM159.4 198V125.5H178.2V138.2H179Q181 131.4 185.7 128Q190.4 124.6 196.5 124.6Q198 124.6 199.8 124.7Q201.5 124.9 202.8 125.2V142.6Q201.5 142.1 199 141.9Q196.6 141.6 194.4 141.6Q190 141.6 186.4 143.5Q182.8 145.4 180.9 148.8Q178.9 152.2 178.9 156.8V198ZM213 223.7 217.4 209 219.8 209.6Q223.7 210.6 226.8 210.2Q229.8 209.7 231.7 207.7Q233.5 205.7 233.9 202.1L234.4 198.2L207.2 125.5H227.9L240.1 163.1Q242.3 170.3 243.7 177.4Q245.1 184.5 246.9 192.3H242.3Q244.1 184.5 245.8 177.4Q247.6 170.2 249.9 163.1L262.6 125.5H283L252.2 206.6Q250 212.4 246.6 216.7Q243.2 220.9 238.1 223.3Q232.9 225.6 225.7 225.6Q221.8 225.6 218.4 225.1Q215 224.5 213 223.7ZM333.7 125.5V140.4H286.4V125.5ZM299.2 198V120Q299.2 112.3 302.2 107.1Q305.3 102 310.6 99.5Q315.9 96.9 322.7 96.9Q327.3 96.9 331.1 97.6Q334.9 98.4 336.6 98.9L333.1 113.6Q331.9 113.2 330.2 112.9Q328.6 112.6 326.6 112.6Q322.2 112.6 320.4 114.7Q318.5 116.8 318.5 120.6V198ZM378.6 199.4Q367.7 199.4 359.8 194.7Q351.8 190 347.5 181.6Q343.2 173.2 343.2 162.1Q343.2 150.8 347.5 142.4Q351.8 134 359.8 129.3Q367.7 124.6 378.6 124.6Q389.6 124.6 397.5 129.3Q405.4 134 409.8 142.4Q414.1 150.8 414.1 162.1Q414.1 173.2 409.8 181.6Q405.4 190 397.5 194.7Q389.6 199.4 378.6 199.4ZM378.6 184.1Q383.8 184.1 387.3 181.2Q390.8 178.4 392.5 173.3Q394.3 168.3 394.3 162Q394.3 155.6 392.5 150.6Q390.8 145.6 387.3 142.8Q383.8 139.9 378.6 139.9Q373.4 139.9 370 142.8Q366.5 145.6 364.7 150.6Q363 155.6 363 162Q363 168.3 364.7 173.3Q366.5 178.4 370 181.2Q373.4 184.1 378.6 184.1ZM427.6 198V125.5H446.4V138.2H447.2Q449.2 131.4 453.9 128Q458.6 124.6 464.7 124.6Q466.2 124.6 467.9 124.7Q469.7 124.9 471 125.2V142.6Q469.7 142.1 467.2 141.9Q464.7 141.6 462.5 141.6Q458.1 141.6 454.6 143.5Q451 145.4 449 148.8Q447 152.2 447 156.8V198ZM513.9 226.6Q504.8 226.6 498.1 224.3Q491.3 222 487.1 218Q482.9 214 481.3 208.9L498 204.2Q498.9 206.2 500.8 208.1Q502.7 210.1 505.9 211.3Q509.1 212.5 513.7 212.5Q521.2 212.5 525.4 209.1Q529.7 205.7 529.7 198.5V185.2H528.2Q526.9 188.1 524.4 190.8Q522 193.5 518 195.2Q514 197 508.1 197Q499.9 197 493.3 193.1Q486.6 189.3 482.6 181.5Q478.6 173.6 478.6 161.6Q478.6 149.4 482.7 141.2Q486.7 132.9 493.4 128.8Q500.1 124.6 508.2 124.6Q514.3 124.6 518.4 126.7Q522.5 128.7 525.1 131.8Q527.7 134.9 529 137.7H529.8V125.5H548.9V197.4Q548.9 207.2 544.4 213.7Q539.9 220.2 532 223.4Q524.1 226.6 513.9 226.6ZM514.2 182.2Q519.2 182.2 522.6 179.7Q526.1 177.3 527.9 172.6Q529.7 168 529.7 161.5Q529.7 155.1 527.9 150.3Q526.1 145.5 522.6 142.9Q519.2 140.2 514.2 140.2Q509.1 140.2 505.6 142.9Q502.1 145.7 500.4 150.5Q498.6 155.3 498.6 161.5Q498.6 167.9 500.4 172.5Q502.1 177.1 505.6 179.7Q509.1 182.2 514.2 182.2ZM598.2 199.4Q587.2 199.4 579.1 194.9Q571.1 190.4 566.8 182Q562.5 173.6 562.5 162.2Q562.5 151 566.7 142.5Q571 134.1 578.9 129.4Q586.7 124.6 597.3 124.6Q604.4 124.6 610.6 126.9Q616.7 129.2 621.4 133.7Q626 138.3 628.7 145.2Q631.3 152.1 631.3 161.4V166.8H570.4V154.6H621.8L612.7 157.9Q612.7 152.2 611 148.1Q609.3 143.9 605.9 141.6Q602.5 139.3 597.5 139.3Q592.4 139.3 588.9 141.6Q585.3 144 583.5 147.9Q581.7 151.9 581.7 157V165.7Q581.7 171.9 583.8 176.2Q585.9 180.5 589.7 182.6Q593.5 184.8 598.6 184.8Q602 184.8 604.8 183.8Q607.6 182.8 609.5 180.9Q611.5 179 612.6 176.2L630.2 179.5Q628.4 185.5 624.1 190Q619.8 194.5 613.2 197Q606.7 199.4 598.2 199.4Z" fill="#09090b" /><path aria-label="Your agent works like a senior developer." d="M73.7 270V260.1L64.8 245.9H68.4L73.2 253.7Q74 255 74.6 256.2Q75.2 257.3 75.9 259.2H74.7Q75.3 257.3 76 256.1Q76.6 254.9 77.4 253.7L82.1 245.9H85.7L76.8 260.1V270ZM96.5 270.4Q94 270.4 92.1 269.2Q90.3 268.1 89.2 265.9Q88.2 263.8 88.2 261.1Q88.2 258.2 89.2 256.1Q90.3 254 92.1 252.8Q94 251.7 96.5 251.7Q98.9 251.7 100.8 252.8Q102.7 254 103.7 256.1Q104.7 258.2 104.7 261.1Q104.7 263.8 103.7 265.9Q102.7 268.1 100.8 269.2Q98.9 270.4 96.5 270.4ZM96.5 267.8Q98.3 267.8 99.5 266.8Q100.6 265.9 101.2 264.4Q101.8 262.8 101.8 261.1Q101.8 259.3 101.2 257.7Q100.6 256.2 99.5 255.2Q98.3 254.3 96.5 254.3Q94.6 254.3 93.5 255.2Q92.3 256.2 91.7 257.7Q91.2 259.2 91.2 261.1Q91.2 262.8 91.7 264.4Q92.3 265.9 93.5 266.8Q94.6 267.8 96.5 267.8ZM115.1 270.2Q113.3 270.2 111.9 269.5Q110.5 268.7 109.7 267.2Q109 265.7 109 263.4V251.9H111.9V263.1Q111.9 265.2 113 266.4Q114.1 267.6 116 267.6Q117.3 267.6 118.3 267Q119.3 266.5 119.9 265.4Q120.5 264.3 120.5 262.7V251.9H123.5V270H120.7V265.6H121Q120.2 268.2 118.7 269.2Q117.1 270.2 115.1 270.2ZM128.6 270V251.9H131.4V254.7H131.6Q132.1 253.3 133.4 252.5Q134.7 251.6 136.3 251.6Q136.6 251.6 137.1 251.6Q137.5 251.7 137.8 251.7V254.6Q137.7 254.6 137.1 254.5Q136.6 254.4 136 254.4Q134.7 254.4 133.7 255Q132.7 255.5 132.1 256.5Q131.5 257.4 131.5 258.7V270ZM155.5 270.4Q153.8 270.4 152.4 269.8Q151 269.1 150.1 267.9Q149.3 266.6 149.3 264.8Q149.3 263.3 149.9 262.3Q150.5 261.3 151.6 260.8Q152.6 260.2 153.9 260Q155.1 259.7 156.4 259.5Q158 259.3 159 259.2Q160 259.1 160.5 258.8Q161 258.5 161 257.9V257.8Q161 256.6 160.6 255.8Q160.2 255.1 159.3 254.6Q158.5 254.2 157.2 254.2Q155.9 254.2 155 254.6Q154.1 255 153.5 255.6Q152.9 256.2 152.6 256.9L149.8 256Q150.5 254.3 151.7 253.4Q152.9 252.4 154.3 252Q155.7 251.7 157.1 251.7Q158 251.7 159.2 251.9Q160.4 252.1 161.4 252.7Q162.5 253.4 163.2 254.7Q163.9 255.9 163.9 258.1V270H161.1V267.5H160.9Q160.6 268.2 159.9 268.8Q159.2 269.5 158.1 270Q157 270.4 155.5 270.4ZM156 267.8Q157.6 267.8 158.7 267.2Q159.8 266.6 160.4 265.6Q161 264.6 161 263.5V260.9Q160.8 261.2 160.2 261.3Q159.6 261.5 158.9 261.6Q158.1 261.8 157.4 261.8Q156.7 261.9 156.2 262Q155.2 262.1 154.3 262.4Q153.4 262.7 152.8 263.3Q152.2 264 152.2 265Q152.2 265.9 152.7 266.6Q153.2 267.2 154.1 267.5Q154.9 267.8 156 267.8ZM176.4 277.2Q174.4 277.2 172.9 276.7Q171.4 276.1 170.5 275.3Q169.5 274.5 168.9 273.5L171.3 271.9Q171.7 272.5 172.3 273.1Q172.8 273.7 173.8 274.2Q174.8 274.6 176.4 274.6Q178.6 274.6 180 273.6Q181.4 272.5 181.4 270.3V266.7H181.1Q180.8 267.2 180.2 267.9Q179.7 268.6 178.6 269.2Q177.6 269.7 175.8 269.7Q173.7 269.7 171.9 268.7Q170.2 267.7 169.2 265.7Q168.2 263.7 168.2 260.9Q168.2 258.1 169.2 256Q170.2 253.9 171.9 252.8Q173.6 251.7 175.9 251.7Q177.6 251.7 178.7 252.2Q179.7 252.8 180.3 253.6Q180.9 254.3 181.2 254.8H181.4V251.9H184.3V270.5Q184.3 272.8 183.2 274.3Q182.2 275.8 180.4 276.5Q178.6 277.2 176.4 277.2ZM176.3 267.1Q178 267.1 179.1 266.4Q180.2 265.6 180.8 264.2Q181.4 262.8 181.4 260.8Q181.4 258.9 180.8 257.4Q180.2 255.9 179.1 255.1Q178 254.3 176.3 254.3Q174.6 254.3 173.4 255.2Q172.3 256 171.7 257.5Q171.1 259 171.1 260.8Q171.1 262.7 171.7 264.1Q172.3 265.5 173.5 266.3Q174.6 267.1 176.3 267.1ZM197 270.4Q194.4 270.4 192.5 269.2Q190.6 268.1 189.6 266Q188.5 263.9 188.5 261.1Q188.5 258.3 189.5 256.2Q190.5 254.1 192.4 252.9Q194.2 251.7 196.7 251.7Q198.1 251.7 199.5 252.1Q200.9 252.6 202.1 253.7Q203.2 254.7 203.9 256.5Q204.6 258.2 204.6 260.7V261.9H190.5V259.5H203L201.6 260.4Q201.6 258.6 201.1 257.2Q200.5 255.8 199.4 255Q198.3 254.3 196.7 254.3Q195 254.3 193.9 255.1Q192.7 255.9 192.1 257.1Q191.5 258.4 191.5 259.9V261.5Q191.5 263.6 192.2 265Q192.9 266.4 194.1 267.1Q195.4 267.8 197 267.8Q198.1 267.8 199 267.5Q199.8 267.2 200.5 266.6Q201.1 265.9 201.5 265L204.3 265.8Q203.8 267.1 202.8 268.2Q201.8 269.2 200.4 269.8Q198.9 270.4 197 270.4ZM211.7 259.1V270H208.7V251.9H211.5L211.6 256.3H211.2Q212 253.8 213.5 252.7Q215 251.7 217.1 251.7Q218.9 251.7 220.3 252.4Q221.7 253.2 222.5 254.7Q223.2 256.2 223.2 258.5V270H220.3V258.7Q220.3 256.7 219.2 255.5Q218.1 254.3 216.2 254.3Q214.9 254.3 213.9 254.9Q212.9 255.4 212.3 256.5Q211.7 257.6 211.7 259.1ZM235.5 251.9V254.4H226.1V251.9ZM228.8 247.6H231.7V265.3Q231.7 266.5 232.2 267.1Q232.7 267.6 233.9 267.6Q234.2 267.6 234.6 267.6Q235 267.5 235.4 267.4L236 269.9Q235.5 270.1 234.9 270.1Q234.4 270.2 233.8 270.2Q231.5 270.2 230.1 269Q228.8 267.7 228.8 265.5ZM252.6 270 247.1 251.9H250.2L252.4 259.8Q252.9 261.4 253.4 263.5Q253.9 265.5 254.4 268.1H253.9Q254.4 265.6 254.9 263.6Q255.4 261.5 255.9 259.8L258 251.9H261.1L263.3 259.8Q263.7 261.5 264.2 263.5Q264.7 265.6 265.2 268.1H264.7Q265.2 265.6 265.7 263.5Q266.2 261.5 266.7 259.8L268.9 251.9H272L266.5 270H263.6L261.3 261.8Q260.9 260.6 260.6 259.3Q260.2 258 259.9 256.6Q259.6 255.2 259.2 253.8H259.9Q259.6 255.2 259.2 256.6Q258.9 258 258.5 259.3Q258.2 260.6 257.8 261.8L255.5 270ZM283.1 270.4Q280.6 270.4 278.7 269.2Q276.9 268.1 275.8 265.9Q274.8 263.8 274.8 261.1Q274.8 258.2 275.8 256.1Q276.9 254 278.7 252.8Q280.6 251.7 283.1 251.7Q285.5 251.7 287.4 252.8Q289.3 254 290.3 256.1Q291.3 258.2 291.3 261.1Q291.3 263.8 290.3 265.9Q289.3 268.1 287.4 269.2Q285.5 270.4 283.1 270.4ZM283.1 267.8Q284.9 267.8 286.1 266.8Q287.3 265.9 287.8 264.4Q288.4 262.8 288.4 261.1Q288.4 259.3 287.8 257.7Q287.3 256.2 286.1 255.2Q284.9 254.3 283.1 254.3Q281.2 254.3 280.1 255.2Q278.9 256.2 278.3 257.7Q277.8 259.2 277.8 261.1Q277.8 262.8 278.3 264.4Q278.9 265.9 280.1 266.8Q281.2 267.8 283.1 267.8ZM295.6 270V251.9H298.4V254.7H298.6Q299.1 253.3 300.4 252.5Q301.7 251.6 303.3 251.6Q303.6 251.6 304.1 251.6Q304.5 251.7 304.8 251.7V254.6Q304.6 254.6 304.1 254.5Q303.6 254.4 303 254.4Q301.7 254.4 300.7 255Q299.7 255.5 299.1 256.5Q298.5 257.4 298.5 258.7V270ZM310.8 263.5V259.9H311.3L319.1 251.9H322.7L314.3 260.5H314ZM308.1 270V245.9H311V270ZM319.5 270 312.6 261.1 314.7 259.1 323.3 270ZM332.4 270.4Q330.6 270.4 329.1 269.8Q327.7 269.3 326.7 268.2Q325.8 267.2 325.5 265.6L328.2 264.9Q328.6 266.4 329.7 267.1Q330.8 267.8 332.4 267.8Q334.3 267.8 335.4 267Q336.6 266.2 336.6 265.1Q336.6 264.2 335.9 263.5Q335.2 262.9 333.9 262.6L330.9 261.9Q328.4 261.3 327.2 260.1Q326 258.9 326 256.9Q326 255.4 326.9 254.2Q327.8 253 329.3 252.3Q330.8 251.7 332.7 251.7Q334.6 251.7 335.9 252.2Q337.2 252.8 338 253.8Q338.8 254.7 339.2 256L336.6 256.7Q336.2 255.7 335.4 254.9Q334.5 254.1 332.7 254.1Q331.1 254.1 330.1 254.9Q329 255.6 329 256.8Q329 257.8 329.7 258.4Q330.4 259 332 259.4L334.8 260Q337.2 260.6 338.4 261.8Q339.6 263 339.6 264.9Q339.6 266.5 338.7 267.7Q337.8 269 336.2 269.7Q334.6 270.4 332.4 270.4ZM356 245.9V270H353.1V245.9ZM361.2 270V251.9H364.1V270ZM362.6 248.9Q361.8 248.9 361.2 248.4Q360.6 247.8 360.6 247Q360.6 246.2 361.2 245.6Q361.8 245.1 362.6 245.1Q363.5 245.1 364.1 245.6Q364.7 246.2 364.7 247Q364.7 247.8 364.1 248.4Q363.5 248.9 362.6 248.9ZM371.9 263.5V259.9H372.5L380.2 251.9H383.8L375.5 260.5H375.1ZM369.2 270V245.9H372.1V270ZM380.7 270 373.7 261.1 375.8 259.1 384.4 270ZM395 270.4Q392.4 270.4 390.5 269.2Q388.6 268.1 387.6 266Q386.5 263.9 386.5 261.1Q386.5 258.3 387.5 256.2Q388.5 254.1 390.4 252.9Q392.2 251.7 394.7 251.7Q396.1 251.7 397.5 252.1Q398.9 252.6 400.1 253.7Q401.2 254.7 401.9 256.5Q402.6 258.2 402.6 260.7V261.9H388.5V259.5H401L399.6 260.4Q399.6 258.6 399.1 257.2Q398.5 255.8 397.4 255Q396.3 254.3 394.7 254.3Q393 254.3 391.9 255.1Q390.7 255.9 390.1 257.1Q389.5 258.4 389.5 259.9V261.5Q389.5 263.6 390.2 265Q390.9 266.4 392.1 267.1Q393.4 267.8 395 267.8Q396.1 267.8 397 267.5Q397.9 267.2 398.5 266.6Q399.1 265.9 399.5 265L402.3 265.8Q401.9 267.1 400.9 268.2Q399.9 269.2 398.4 269.8Q396.9 270.4 395 270.4ZM421.2 270.4Q419.4 270.4 418 269.8Q416.6 269.1 415.8 267.9Q415 266.6 415 264.8Q415 263.3 415.6 262.3Q416.2 261.3 417.2 260.8Q418.3 260.2 419.5 260Q420.8 259.7 422 259.5Q423.7 259.3 424.7 259.2Q425.7 259.1 426.2 258.8Q426.7 258.5 426.7 257.9V257.8Q426.7 256.6 426.3 255.8Q425.8 255.1 425 254.6Q424.2 254.2 422.9 254.2Q421.6 254.2 420.7 254.6Q419.7 255 419.2 255.6Q418.6 256.2 418.3 256.9L415.5 256Q416.2 254.3 417.4 253.4Q418.6 252.4 420 252Q421.4 251.7 422.8 251.7Q423.7 251.7 424.9 251.9Q426 252.1 427.1 252.7Q428.2 253.4 428.9 254.7Q429.6 255.9 429.6 258.1V270H426.7V267.5H426.5Q426.2 268.2 425.5 268.8Q424.9 269.5 423.8 270Q422.7 270.4 421.2 270.4ZM421.7 267.8Q423.3 267.8 424.4 267.2Q425.5 266.6 426.1 265.6Q426.7 264.6 426.7 263.5V260.9Q426.5 261.2 425.9 261.3Q425.3 261.5 424.5 261.6Q423.8 261.8 423 261.8Q422.3 261.9 421.9 262Q420.9 262.1 419.9 262.4Q419 262.7 418.5 263.3Q417.9 264 417.9 265Q417.9 265.9 418.4 266.6Q418.9 267.2 419.7 267.5Q420.6 267.8 421.7 267.8ZM450.2 270.4Q448.3 270.4 446.9 269.8Q445.4 269.3 444.5 268.2Q443.6 267.2 443.2 265.6L446 264.9Q446.4 266.4 447.5 267.1Q448.6 267.8 450.2 267.8Q452.1 267.8 453.2 267Q454.3 266.2 454.3 265.1Q454.3 264.2 453.7 263.5Q453 262.9 451.7 262.6L448.7 261.9Q446.2 261.3 445 260.1Q443.8 258.9 443.8 256.9Q443.8 255.4 444.7 254.2Q445.5 253 447.1 252.3Q448.6 251.7 450.5 251.7Q452.4 251.7 453.7 252.2Q455 252.8 455.8 253.8Q456.6 254.7 457 256L454.4 256.7Q454 255.7 453.1 254.9Q452.3 254.1 450.5 254.1Q448.9 254.1 447.8 254.9Q446.7 255.6 446.7 256.8Q446.7 257.8 447.5 258.4Q448.2 259 449.8 259.4L452.5 260Q455 260.6 456.2 261.8Q457.4 263 457.4 264.9Q457.4 266.5 456.5 267.7Q455.6 269 453.9 269.7Q452.3 270.4 450.2 270.4ZM469.2 270.4Q466.6 270.4 464.7 269.2Q462.7 268.1 461.7 266Q460.7 263.9 460.7 261.1Q460.7 258.3 461.7 256.2Q462.7 254.1 464.5 252.9Q466.4 251.7 468.8 251.7Q470.3 251.7 471.7 252.1Q473.1 252.6 474.2 253.7Q475.4 254.7 476 256.5Q476.7 258.2 476.7 260.7V261.9H462.7V259.5H475.2L473.8 260.4Q473.8 258.6 473.2 257.2Q472.7 255.8 471.6 255Q470.5 254.3 468.8 254.3Q467.2 254.3 466 255.1Q464.9 255.9 464.3 257.1Q463.6 258.4 463.6 259.9V261.5Q463.6 263.6 464.3 265Q465 266.4 466.3 267.1Q467.5 267.8 469.2 267.8Q470.3 267.8 471.1 267.5Q472 267.2 472.6 266.6Q473.3 265.9 473.6 265L476.4 265.8Q476 267.1 475 268.2Q474 269.2 472.5 269.8Q471 270.4 469.2 270.4ZM483.8 259.1V270H480.9V251.9H483.7L483.7 256.3H483.3Q484.1 253.8 485.7 252.7Q487.2 251.7 489.3 251.7Q491.1 251.7 492.5 252.4Q493.9 253.2 494.6 254.7Q495.4 256.2 495.4 258.5V270H492.5V258.7Q492.5 256.7 491.4 255.5Q490.3 254.3 488.4 254.3Q487.1 254.3 486.1 254.9Q485 255.4 484.4 256.5Q483.8 257.6 483.8 259.1ZM500.5 270V251.9H503.4V270ZM502 248.9Q501.2 248.9 500.6 248.4Q500 247.8 500 247Q500 246.2 500.6 245.6Q501.2 245.1 502 245.1Q502.8 245.1 503.4 245.6Q504 246.2 504 247Q504 247.8 503.4 248.4Q502.8 248.9 502 248.9ZM515.9 270.4Q513.5 270.4 511.6 269.2Q509.7 268.1 508.7 265.9Q507.7 263.8 507.7 261.1Q507.7 258.2 508.7 256.1Q509.7 254 511.6 252.8Q513.5 251.7 515.9 251.7Q518.4 251.7 520.3 252.8Q522.1 254 523.2 256.1Q524.2 258.2 524.2 261.1Q524.2 263.8 523.2 265.9Q522.1 268.1 520.3 269.2Q518.4 270.4 515.9 270.4ZM515.9 267.8Q517.8 267.8 518.9 266.8Q520.1 265.9 520.7 264.4Q521.3 262.8 521.3 261.1Q521.3 259.3 520.7 257.7Q520.1 256.2 518.9 255.2Q517.8 254.3 515.9 254.3Q514.1 254.3 512.9 255.2Q511.8 256.2 511.2 257.7Q510.6 259.2 510.6 261.1Q510.6 262.8 511.2 264.4Q511.8 265.9 512.9 266.8Q514.1 267.8 515.9 267.8ZM528.4 270V251.9H531.3V254.7H531.5Q532 253.3 533.2 252.5Q534.5 251.6 536.2 251.6Q536.5 251.6 536.9 251.6Q537.4 251.7 537.6 251.7V254.6Q537.5 254.6 537 254.5Q536.5 254.4 535.9 254.4Q534.6 254.4 533.6 255Q532.5 255.5 531.9 256.5Q531.4 257.4 531.4 258.7V270ZM557.1 270.4Q554.8 270.4 553.1 269.2Q551.3 268.1 550.4 266Q549.4 263.9 549.4 261Q549.4 258.1 550.4 256Q551.4 253.9 553.1 252.8Q554.8 251.7 557.1 251.7Q558.8 251.7 559.9 252.2Q560.9 252.8 561.5 253.6Q562 254.3 562.3 254.8H562.5V245.9H565.5V270H562.6V267.2H562.3Q562 267.7 561.5 268.5Q560.9 269.2 559.8 269.8Q558.8 270.4 557.1 270.4ZM557.5 267.8Q559.1 267.8 560.3 266.9Q561.4 266 562 264.5Q562.6 263 562.6 261Q562.6 259 562 257.5Q561.4 256 560.3 255.1Q559.2 254.3 557.5 254.3Q555.8 254.3 554.6 255.2Q553.5 256.1 552.9 257.6Q552.4 259.1 552.4 261Q552.4 262.9 552.9 264.4Q553.5 265.9 554.7 266.9Q555.8 267.8 557.5 267.8ZM578.2 270.4Q575.6 270.4 573.7 269.2Q571.8 268.1 570.7 266Q569.7 263.9 569.7 261.1Q569.7 258.3 570.7 256.2Q571.7 254.1 573.6 252.9Q575.4 251.7 577.9 251.7Q579.3 251.7 580.7 252.1Q582.1 252.6 583.2 253.7Q584.4 254.7 585.1 256.5Q585.7 258.2 585.7 260.7V261.9H571.7V259.5H584.2L582.8 260.4Q582.8 258.6 582.3 257.2Q581.7 255.8 580.6 255Q579.5 254.3 577.9 254.3Q576.2 254.3 575.1 255.1Q573.9 255.9 573.3 257.1Q572.7 258.4 572.7 259.9V261.5Q572.7 263.6 573.4 265Q574.1 266.4 575.3 267.1Q576.6 267.8 578.2 267.8Q579.3 267.8 580.2 267.5Q581 267.2 581.7 266.6Q582.3 265.9 582.6 265L585.5 265.8Q585 267.1 584 268.2Q583 269.2 581.5 269.8Q580.1 270.4 578.2 270.4ZM595.2 270 588.2 251.9H591.4L595.3 262.6Q595.9 264.3 596.3 266Q596.8 267.6 597.2 269.2H596.2Q596.6 267.6 597.1 266Q597.5 264.3 598.1 262.6L601.9 251.9H605.1L598.2 270ZM616.2 270.4Q613.6 270.4 611.7 269.2Q609.8 268.1 608.7 266Q607.7 263.9 607.7 261.1Q607.7 258.3 608.7 256.2Q609.7 254.1 611.5 252.9Q613.4 251.7 615.9 251.7Q617.3 251.7 618.7 252.1Q620.1 252.6 621.2 253.7Q622.4 254.7 623.1 256.5Q623.7 258.2 623.7 260.7V261.9H609.7V259.5H622.2L620.8 260.4Q620.8 258.6 620.2 257.2Q619.7 255.8 618.6 255Q617.5 254.3 615.9 254.3Q614.2 254.3 613 255.1Q611.9 255.9 611.3 257.1Q610.6 258.4 610.6 259.9V261.5Q610.6 263.6 611.3 265Q612 266.4 613.3 267.1Q614.6 267.8 616.2 267.8Q617.3 267.8 618.2 267.5Q619 267.2 619.7 266.6Q620.3 265.9 620.6 265L623.4 265.8Q623 267.1 622 268.2Q621 269.2 619.5 269.8Q618.1 270.4 616.2 270.4ZM630.8 245.9V270H627.9V245.9ZM643.3 270.4Q640.9 270.4 639 269.2Q637.2 268.1 636.1 265.9Q635.1 263.8 635.1 261.1Q635.1 258.2 636.1 256.1Q637.2 254 639 252.8Q640.9 251.7 643.3 251.7Q645.8 251.7 647.7 252.8Q649.5 254 650.6 256.1Q651.6 258.2 651.6 261.1Q651.6 263.8 650.6 265.9Q649.5 268.1 647.7 269.2Q645.8 270.4 643.3 270.4ZM643.3 267.8Q645.2 267.8 646.3 266.8Q647.5 265.9 648.1 264.4Q648.7 262.8 648.7 261.1Q648.7 259.3 648.1 257.7Q647.5 256.2 646.3 255.2Q645.2 254.3 643.3 254.3Q641.5 254.3 640.3 255.2Q639.2 256.2 638.6 257.7Q638 259.2 638 261.1Q638 262.8 638.6 264.4Q639.2 265.9 640.3 266.8Q641.5 267.8 643.3 267.8ZM655.9 276.8V251.9H658.7V254.8H659Q659.3 254.3 659.9 253.6Q660.4 252.8 661.4 252.2Q662.5 251.7 664.2 251.7Q666.5 251.7 668.2 252.8Q670 253.9 670.9 256Q671.9 258.1 671.9 261Q671.9 263.9 671 266Q670 268.1 668.3 269.2Q666.5 270.4 664.3 270.4Q662.5 270.4 661.5 269.8Q660.4 269.2 659.9 268.5Q659.3 267.7 659 267.2H658.8V276.8ZM663.8 267.8Q665.5 267.8 666.7 266.9Q667.8 265.9 668.4 264.4Q669 262.9 669 261Q669 259.1 668.4 257.6Q667.8 256.1 666.7 255.2Q665.5 254.3 663.8 254.3Q662.2 254.3 661 255.1Q659.9 256 659.3 257.5Q658.7 259 658.7 261Q658.7 263 659.3 264.5Q659.9 266 661 266.9Q662.2 267.8 663.8 267.8ZM683.8 270.4Q681.2 270.4 679.3 269.2Q677.4 268.1 676.3 266Q675.3 263.9 675.3 261.1Q675.3 258.3 676.3 256.2Q677.3 254.1 679.1 252.9Q681 251.7 683.4 251.7Q684.9 251.7 686.3 252.1Q687.7 252.6 688.8 253.7Q690 254.7 690.7 256.5Q691.3 258.2 691.3 260.7V261.9H677.3V259.5H689.8L688.4 260.4Q688.4 258.6 687.8 257.2Q687.3 255.8 686.2 255Q685.1 254.3 683.4 254.3Q681.8 254.3 680.6 255.1Q679.5 255.9 678.9 257.1Q678.2 258.4 678.2 259.9V261.5Q678.2 263.6 678.9 265Q679.6 266.4 680.9 267.1Q682.1 267.8 683.8 267.8Q684.9 267.8 685.7 267.5Q686.6 267.2 687.2 266.6Q687.9 265.9 688.2 265L691 265.8Q690.6 267.1 689.6 268.2Q688.6 269.2 687.1 269.8Q685.6 270.4 683.8 270.4ZM695.5 270V251.9H698.3V254.7H698.5Q699 253.3 700.3 252.5Q701.6 251.6 703.2 251.6Q703.5 251.6 704 251.6Q704.4 251.7 704.7 251.7V254.6Q704.6 254.6 704.1 254.5Q703.5 254.4 702.9 254.4Q701.7 254.4 700.6 255Q699.6 255.5 699 256.5Q698.4 257.4 698.4 258.7V270ZM710.2 270.2Q709.3 270.2 708.7 269.6Q708 268.9 708 268Q708 267.1 708.7 266.5Q709.3 265.8 710.2 265.8Q711.1 265.8 711.8 266.5Q712.4 267.1 712.4 268Q712.4 268.9 711.8 269.6Q711.1 270.2 710.2 270.2Z" fill="#27272a" /><path d="M64 310H796" fill="none" stroke="#e4e4e7" stroke-width="2" stroke-linecap="round" stroke-linejoin="round" /><path aria-label="A bounded-autonomy plugin harness for coding agents." d="M64.6 354 70.8 337H73.3L79.6 354H77.3L73.7 343.9Q73.3 343 72.9 341.6Q72.5 340.2 71.8 338H72.2Q71.6 340.2 71.2 341.6Q70.7 343 70.4 343.9L66.9 354ZM67.7 349.2V347.3H76.5V349.2ZM94.5 354.3Q93.3 354.3 92.5 353.9Q91.8 353.4 91.4 352.9Q91 352.4 90.8 352H90.5V354H88.6V337H90.6V343.3H90.8Q91 342.9 91.4 342.4Q91.8 341.9 92.5 341.5Q93.2 341.1 94.5 341.1Q96.1 341.1 97.3 341.9Q98.5 342.7 99.2 344.1Q99.9 345.6 99.9 347.6Q99.9 349.7 99.2 351.2Q98.5 352.7 97.3 353.5Q96.1 354.3 94.5 354.3ZM94.2 352.4Q95.4 352.4 96.2 351.8Q97 351.1 97.4 350Q97.8 349 97.8 347.6Q97.8 346.3 97.4 345.2Q97 344.2 96.2 343.5Q95.4 342.9 94.2 342.9Q93 342.9 92.2 343.5Q91.4 344.1 91 345.1Q90.6 346.2 90.6 347.6Q90.6 349 91 350.1Q91.4 351.2 92.2 351.8Q93 352.4 94.2 352.4ZM108.1 354.3Q106.4 354.3 105.1 353.5Q103.7 352.6 103 351.1Q102.3 349.7 102.3 347.7Q102.3 345.7 103 344.2Q103.7 342.7 105.1 341.9Q106.4 341.1 108.1 341.1Q109.8 341.1 111.2 341.9Q112.5 342.7 113.2 344.2Q113.9 345.7 113.9 347.7Q113.9 349.7 113.2 351.1Q112.5 352.6 111.2 353.5Q109.8 354.3 108.1 354.3ZM108.1 352.4Q109.4 352.4 110.2 351.8Q111.1 351.1 111.5 350Q111.9 348.9 111.9 347.7Q111.9 346.4 111.5 345.3Q111.1 344.2 110.2 343.6Q109.4 342.9 108.1 342.9Q106.8 342.9 106 343.6Q105.2 344.2 104.8 345.3Q104.4 346.4 104.4 347.7Q104.4 348.9 104.8 350Q105.2 351.1 106 351.8Q106.8 352.4 108.1 352.4ZM121.3 354.2Q120 354.2 119 353.6Q118 353.1 117.5 352Q116.9 350.9 116.9 349.3V341.2H119V349.2Q119 350.6 119.8 351.5Q120.6 352.3 121.9 352.3Q122.8 352.3 123.5 351.9Q124.3 351.5 124.7 350.7Q125.1 350 125.1 348.9V341.2H127.2V354H125.2V350.9H125.5Q124.9 352.7 123.8 353.4Q122.7 354.2 121.3 354.2ZM132.8 346.3V354H130.8V341.2H132.8L132.8 344.3H132.5Q133.1 342.5 134.2 341.8Q135.2 341.1 136.7 341.1Q138 341.1 139 341.6Q139.9 342.1 140.5 343.2Q141 344.3 141 345.9V354H139V346.1Q139 344.6 138.2 343.7Q137.4 342.9 136.1 342.9Q135.2 342.9 134.4 343.3Q133.7 343.7 133.3 344.5Q132.8 345.2 132.8 346.3ZM149.4 354.3Q147.8 354.3 146.6 353.5Q145.4 352.7 144.7 351.2Q144 349.7 144 347.6Q144 345.6 144.7 344.1Q145.4 342.7 146.6 341.9Q147.8 341.1 149.4 341.1Q150.7 341.1 151.4 341.5Q152.1 341.9 152.5 342.4Q152.9 342.9 153.1 343.3H153.3V337H155.4V354H153.4V352H153.1Q152.9 352.4 152.5 352.9Q152.1 353.4 151.4 353.9Q150.6 354.3 149.4 354.3ZM149.7 352.4Q150.9 352.4 151.7 351.8Q152.5 351.2 152.9 350.1Q153.3 349 153.3 347.6Q153.3 346.2 152.9 345.1Q152.5 344.1 151.7 343.5Q150.9 342.9 149.7 342.9Q148.5 342.9 147.7 343.5Q146.9 344.2 146.5 345.2Q146.1 346.3 146.1 347.6Q146.1 349 146.5 350Q146.9 351.1 147.7 351.8Q148.5 352.4 149.7 352.4ZM164.3 354.3Q162.5 354.3 161.1 353.5Q159.8 352.6 159.1 351.2Q158.3 349.7 158.3 347.7Q158.3 345.7 159.1 344.2Q159.8 342.7 161.1 341.9Q162.4 341.1 164.1 341.1Q165.1 341.1 166.1 341.4Q167.1 341.7 167.9 342.5Q168.7 343.2 169.2 344.5Q169.7 345.7 169.7 347.4V348.3H159.7V346.6H168.6L167.6 347.2Q167.6 345.9 167.2 345Q166.8 344 166 343.4Q165.3 342.9 164.1 342.9Q162.9 342.9 162.1 343.5Q161.3 344 160.9 344.9Q160.4 345.8 160.4 346.9V348Q160.4 349.4 160.9 350.4Q161.4 351.4 162.3 351.9Q163.2 352.4 164.4 352.4Q165.1 352.4 165.7 352.2Q166.3 352 166.8 351.6Q167.2 351.1 167.5 350.5L169.5 351Q169.2 352 168.5 352.7Q167.7 353.5 166.7 353.9Q165.7 354.3 164.3 354.3ZM177.4 354.3Q175.8 354.3 174.6 353.5Q173.4 352.7 172.7 351.2Q172 349.7 172 347.6Q172 345.6 172.7 344.1Q173.4 342.7 174.6 341.9Q175.8 341.1 177.4 341.1Q178.7 341.1 179.4 341.5Q180.1 341.9 180.5 342.4Q180.9 342.9 181.1 343.3H181.3V337H183.3V354H181.4V352H181.1Q180.9 352.4 180.5 352.9Q180.1 353.4 179.4 353.9Q178.6 354.3 177.4 354.3ZM177.7 352.4Q178.9 352.4 179.7 351.8Q180.5 351.2 180.9 350.1Q181.3 349 181.3 347.6Q181.3 346.2 180.9 345.1Q180.5 344.1 179.7 343.5Q178.9 342.9 177.7 342.9Q176.5 342.9 175.7 343.5Q174.9 344.2 174.5 345.2Q174.1 346.3 174.1 347.6Q174.1 349 174.5 350Q174.9 351.1 175.7 351.8Q176.5 352.4 177.7 352.4ZM194.3 345.8V347.7H186.8V345.8ZM201.3 354.3Q200.1 354.3 199.1 353.8Q198.1 353.4 197.5 352.5Q197 351.6 197 350.4Q197 349.3 197.4 348.6Q197.8 347.9 198.6 347.5Q199.3 347.1 200.2 346.9Q201 346.7 201.9 346.6Q203.1 346.5 203.8 346.4Q204.5 346.3 204.9 346.1Q205.2 345.9 205.2 345.4V345.4Q205.2 344.6 204.9 344Q204.6 343.5 204 343.2Q203.4 342.9 202.5 342.9Q201.6 342.9 201 343.1Q200.3 343.4 199.9 343.9Q199.5 344.3 199.3 344.7L197.3 344.1Q197.8 342.9 198.7 342.3Q199.5 341.6 200.5 341.3Q201.5 341.1 202.5 341.1Q203.1 341.1 203.9 341.2Q204.8 341.4 205.5 341.8Q206.3 342.3 206.8 343.2Q207.3 344.1 207.3 345.6V354H205.2V352.3H205.1Q204.9 352.7 204.4 353.2Q203.9 353.7 203.2 354Q202.4 354.3 201.3 354.3ZM201.7 352.5Q202.8 352.5 203.6 352Q204.4 351.6 204.8 350.9Q205.2 350.2 205.2 349.4V347.6Q205.1 347.8 204.7 347.9Q204.2 348 203.7 348.1Q203.2 348.2 202.6 348.2Q202.1 348.3 201.8 348.3Q201.1 348.4 200.5 348.7Q199.8 348.9 199.4 349.3Q199 349.7 199 350.5Q199 351.1 199.4 351.6Q199.7 352 200.3 352.3Q200.9 352.5 201.7 352.5ZM215.2 354.2Q213.9 354.2 213 353.6Q212 353.1 211.4 352Q210.9 350.9 210.9 349.3V341.2H212.9V349.2Q212.9 350.6 213.7 351.5Q214.5 352.3 215.8 352.3Q216.8 352.3 217.5 351.9Q218.2 351.5 218.6 350.7Q219.1 350 219.1 348.9V341.2H221.1V354H219.1V350.9H219.4Q218.8 352.7 217.7 353.4Q216.6 354.2 215.2 354.2ZM229.8 341.2V343H223.2V341.2ZM225.1 338.2H227.1V350.7Q227.1 351.5 227.5 351.9Q227.8 352.3 228.6 352.3Q228.8 352.3 229.1 352.3Q229.4 352.2 229.7 352.2L230.1 353.9Q229.8 354 229.4 354.1Q229 354.2 228.6 354.2Q226.9 354.2 226 353.3Q225.1 352.4 225.1 350.8ZM237.6 354.3Q235.9 354.3 234.6 353.5Q233.2 352.6 232.5 351.1Q231.8 349.7 231.8 347.7Q231.8 345.7 232.5 344.2Q233.2 342.7 234.6 341.9Q235.9 341.1 237.6 341.1Q239.4 341.1 240.7 341.9Q242 342.7 242.7 344.2Q243.4 345.7 243.4 347.7Q243.4 349.7 242.7 351.1Q242 352.6 240.7 353.5Q239.4 354.3 237.6 354.3ZM237.6 352.4Q238.9 352.4 239.7 351.8Q240.6 351.1 241 350Q241.4 348.9 241.4 347.7Q241.4 346.4 241 345.3Q240.6 344.2 239.7 343.6Q238.9 342.9 237.6 342.9Q236.3 342.9 235.5 343.6Q234.7 344.2 234.3 345.3Q233.9 346.4 233.9 347.7Q233.9 348.9 234.3 350Q234.7 351.1 235.5 351.8Q236.3 352.4 237.6 352.4ZM248.5 346.3V354H246.4V341.2H248.4L248.4 344.3H248.1Q248.7 342.5 249.8 341.8Q250.9 341.1 252.3 341.1Q253.6 341.1 254.6 341.6Q255.6 342.1 256.1 343.2Q256.7 344.3 256.7 345.9V354H254.6V346.1Q254.6 344.6 253.8 343.7Q253.1 342.9 251.7 342.9Q250.8 342.9 250.1 343.3Q249.3 343.7 248.9 344.5Q248.5 345.2 248.5 346.3ZM265.5 354.3Q263.7 354.3 262.4 353.5Q261.1 352.6 260.4 351.1Q259.7 349.7 259.7 347.7Q259.7 345.7 260.4 344.2Q261.1 342.7 262.4 341.9Q263.7 341.1 265.5 341.1Q267.2 341.1 268.5 341.9Q269.9 342.7 270.6 344.2Q271.3 345.7 271.3 347.7Q271.3 349.7 270.6 351.1Q269.9 352.6 268.5 353.5Q267.2 354.3 265.5 354.3ZM265.5 352.4Q266.8 352.4 267.6 351.8Q268.4 351.1 268.8 350Q269.2 348.9 269.2 347.7Q269.2 346.4 268.8 345.3Q268.4 344.2 267.6 343.6Q266.8 342.9 265.5 342.9Q264.2 342.9 263.4 343.6Q262.6 344.2 262.2 345.3Q261.8 346.4 261.8 347.7Q261.8 348.9 262.2 350Q262.6 351.1 263.4 351.8Q264.2 352.4 265.5 352.4ZM274.3 354V341.2H276.3L276.3 344.1H276.2Q276.4 343 277 342.4Q277.6 341.7 278.3 341.3Q279.1 341 279.9 341Q281.3 341 282.2 341.8Q283 342.7 283.3 344.1H283Q283.2 343.1 283.9 342.4Q284.5 341.7 285.3 341.4Q286.2 341 287.2 341Q288.3 341 289.2 341.5Q290.1 341.9 290.7 342.9Q291.2 343.9 291.2 345.4V354H289.2V345.4Q289.2 344.1 288.4 343.5Q287.6 342.9 286.6 342.9Q285.7 342.9 285.1 343.2Q284.5 343.6 284.1 344.2Q283.8 344.8 283.8 345.7V354H281.7V345.2Q281.7 344.2 281 343.5Q280.3 342.9 279.2 342.9Q278.5 342.9 277.8 343.2Q277.2 343.6 276.8 344.2Q276.4 344.9 276.4 345.9V354ZM294.6 358.6 295.2 356.8 295.4 356.9Q296 357.1 296.5 357Q297 356.9 297.4 356.5Q297.9 356 298.2 355.1L298.5 354.1L293.7 341.2H295.9L298.6 348.8Q299.1 350 299.4 351.2Q299.7 352.3 300 353.4H299.2Q299.6 352.3 299.9 351.1Q300.2 350 300.6 348.8L303.3 341.2H305.6L300 355.9Q299.6 356.9 299 357.6Q298.5 358.2 297.8 358.6Q297 358.9 296.1 358.9Q295.6 358.9 295.2 358.8Q294.8 358.7 294.6 358.6ZM314.6 358.8V341.2H316.6V343.3H316.8Q317 342.9 317.4 342.4Q317.8 341.9 318.5 341.5Q319.3 341.1 320.5 341.1Q322.1 341.1 323.3 341.9Q324.6 342.7 325.2 344.1Q325.9 345.6 325.9 347.6Q325.9 349.7 325.2 351.2Q324.6 352.7 323.3 353.5Q322.1 354.3 320.5 354.3Q319.3 354.3 318.6 353.9Q317.8 353.4 317.4 352.9Q317 352.4 316.8 352H316.6V358.8ZM320.2 352.4Q321.4 352.4 322.2 351.8Q323 351.1 323.4 350Q323.8 349 323.8 347.6Q323.8 346.3 323.4 345.2Q323 344.2 322.2 343.5Q321.4 342.9 320.2 342.9Q319 342.9 318.2 343.5Q317.4 344.1 317 345.1Q316.6 346.2 316.6 347.6Q316.6 349 317 350.1Q317.4 351.2 318.3 351.8Q319.1 352.4 320.2 352.4ZM331 337V354H328.9V337ZM338.9 354.2Q337.6 354.2 336.7 353.6Q335.7 353.1 335.1 352Q334.6 350.9 334.6 349.3V341.2H336.7V349.2Q336.7 350.6 337.4 351.5Q338.2 352.3 339.6 352.3Q340.5 352.3 341.2 351.9Q341.9 351.5 342.3 350.7Q342.8 350 342.8 348.9V341.2H344.8V354H342.8V350.9H343.1Q342.5 352.7 341.4 353.4Q340.3 354.2 338.9 354.2ZM353.6 359.1Q352.2 359.1 351.2 358.7Q350.1 358.3 349.5 357.7Q348.8 357.1 348.4 356.4L350 355.4Q350.3 355.7 350.7 356.2Q351.1 356.6 351.8 356.9Q352.5 357.3 353.6 357.3Q355.2 357.3 356.2 356.5Q357.1 355.8 357.1 354.2V351.7H357Q356.7 352 356.3 352.5Q355.9 353 355.2 353.4Q354.5 353.8 353.2 353.8Q351.7 353.8 350.5 353.1Q349.3 352.3 348.5 350.9Q347.8 349.6 347.8 347.5Q347.8 345.6 348.5 344.1Q349.2 342.7 350.5 341.9Q351.7 341.1 353.3 341.1Q354.5 341.1 355.3 341.5Q356 341.9 356.4 342.4Q356.8 342.9 357 343.3H357.2V341.2H359.2V354.3Q359.2 356 358.5 357Q357.7 358.1 356.5 358.6Q355.2 359.1 353.6 359.1ZM353.6 352Q354.7 352 355.5 351.4Q356.3 350.9 356.8 349.9Q357.2 348.9 357.2 347.5Q357.2 346.1 356.8 345.1Q356.4 344.1 355.6 343.5Q354.8 342.9 353.6 342.9Q352.4 342.9 351.6 343.5Q350.7 344.1 350.3 345.2Q349.9 346.2 349.9 347.5Q349.9 348.8 350.3 349.8Q350.8 350.8 351.6 351.4Q352.4 352 353.6 352ZM362.8 354V341.2H364.9V354ZM363.9 339.1Q363.3 339.1 362.9 338.7Q362.4 338.3 362.4 337.8Q362.4 337.2 362.9 336.8Q363.3 336.4 363.9 336.4Q364.5 336.4 364.9 336.8Q365.3 337.2 365.3 337.8Q365.3 338.3 364.9 338.7Q364.5 339.1 363.9 339.1ZM370.5 346.3V354H368.5V341.2H370.5L370.5 344.3H370.2Q370.8 342.5 371.9 341.8Q372.9 341.1 374.4 341.1Q375.7 341.1 376.7 341.6Q377.6 342.1 378.2 343.2Q378.7 344.3 378.7 345.9V354H376.7V346.1Q376.7 344.6 375.9 343.7Q375.1 342.9 373.8 342.9Q372.9 342.9 372.1 343.3Q371.4 343.7 371 344.5Q370.5 345.2 370.5 346.3ZM391 346.3V354H388.9V337H391V344.3H390.6Q391.2 342.5 392.3 341.8Q393.4 341.1 394.8 341.1Q396.1 341.1 397.1 341.6Q398.1 342.1 398.6 343.2Q399.2 344.3 399.2 345.9V354H397.1V346.1Q397.1 344.6 396.3 343.7Q395.5 342.9 394.2 342.9Q393.3 342.9 392.6 343.3Q391.8 343.7 391.4 344.5Q391 345.2 391 346.3ZM406.3 354.3Q405.1 354.3 404.1 353.8Q403.2 353.4 402.6 352.5Q402 351.6 402 350.4Q402 349.3 402.4 348.6Q402.9 347.9 403.6 347.5Q404.3 347.1 405.2 346.9Q406.1 346.7 407 346.6Q408.1 346.5 408.8 346.4Q409.5 346.3 409.9 346.1Q410.2 345.9 410.2 345.4V345.4Q410.2 344.6 409.9 344Q409.6 343.5 409.1 343.2Q408.5 342.9 407.6 342.9Q406.7 342.9 406 343.1Q405.3 343.4 404.9 343.9Q404.5 344.3 404.3 344.7L402.4 344.1Q402.8 342.9 403.7 342.3Q404.5 341.6 405.5 341.3Q406.5 341.1 407.5 341.1Q408.2 341.1 409 341.2Q409.8 341.4 410.5 341.8Q411.3 342.3 411.8 343.2Q412.3 344.1 412.3 345.6V354H410.3V352.3H410.1Q409.9 352.7 409.4 353.2Q409 353.7 408.2 354Q407.4 354.3 406.3 354.3ZM406.7 352.5Q407.8 352.5 408.6 352Q409.4 351.6 409.8 350.9Q410.2 350.2 410.2 349.4V347.6Q410.1 347.8 409.7 347.9Q409.3 348 408.7 348.1Q408.2 348.2 407.7 348.2Q407.2 348.3 406.9 348.3Q406.1 348.4 405.5 348.7Q404.8 348.9 404.4 349.3Q404.1 349.7 404.1 350.5Q404.1 351.1 404.4 351.6Q404.7 352 405.3 352.3Q405.9 352.5 406.7 352.5ZM415.9 354V341.2H417.9V343.2H418Q418.4 342.2 419.3 341.6Q420.2 341 421.4 341Q421.6 341 421.9 341Q422.2 341.1 422.4 341.1V343.1Q422.3 343.1 421.9 343.1Q421.6 343 421.2 343Q420.3 343 419.5 343.4Q418.8 343.8 418.4 344.5Q418 345.1 418 346V354ZM426.8 346.3V354H424.7V341.2H426.7L426.7 344.3H426.4Q427 342.5 428.1 341.8Q429.2 341.1 430.6 341.1Q431.9 341.1 432.9 341.6Q433.9 342.1 434.4 343.2Q435 344.3 435 345.9V354H432.9V346.1Q432.9 344.6 432.1 343.7Q431.4 342.9 430 342.9Q429.1 342.9 428.4 343.3Q427.6 343.7 427.2 344.5Q426.8 345.2 426.8 346.3ZM443.9 354.3Q442.1 354.3 440.7 353.5Q439.4 352.6 438.7 351.2Q438 349.7 438 347.7Q438 345.7 438.7 344.2Q439.4 342.7 440.7 341.9Q442 341.1 443.7 341.1Q444.7 341.1 445.7 341.4Q446.7 341.7 447.5 342.5Q448.3 343.2 448.8 344.5Q449.3 345.7 449.3 347.4V348.3H439.3V346.6H448.2L447.2 347.2Q447.2 345.9 446.8 345Q446.4 344 445.6 343.4Q444.9 342.9 443.7 342.9Q442.6 342.9 441.7 343.5Q440.9 344 440.5 344.9Q440 345.8 440 346.9V348Q440 349.4 440.5 350.4Q441 351.4 441.9 351.9Q442.8 352.4 444 352.4Q444.7 352.4 445.3 352.2Q445.9 352 446.4 351.6Q446.8 351.1 447.1 350.5L449.1 351Q448.8 352 448.1 352.7Q447.4 353.5 446.3 353.9Q445.3 354.3 443.9 354.3ZM456.6 354.3Q455.3 354.3 454.2 353.9Q453.2 353.5 452.5 352.8Q451.9 352 451.7 350.9L453.6 350.4Q453.9 351.5 454.6 352Q455.4 352.5 456.5 352.5Q457.9 352.5 458.7 351.9Q459.5 351.3 459.5 350.5Q459.5 349.9 459 349.4Q458.6 349 457.6 348.8L455.5 348.3Q453.7 347.9 452.9 347Q452 346.1 452 344.8Q452 343.7 452.7 342.8Q453.3 342 454.3 341.5Q455.4 341.1 456.8 341.1Q458.1 341.1 459 341.4Q459.9 341.8 460.5 342.5Q461.1 343.2 461.4 344.1L459.5 344.6Q459.2 343.9 458.6 343.4Q458 342.8 456.8 342.8Q455.6 342.8 454.9 343.3Q454.1 343.9 454.1 344.7Q454.1 345.4 454.6 345.8Q455.2 346.2 456.3 346.5L458.2 346.9Q459.9 347.4 460.8 348.2Q461.6 349.1 461.6 350.4Q461.6 351.5 461 352.4Q460.3 353.3 459.2 353.8Q458.1 354.3 456.6 354.3ZM468.9 354.3Q467.6 354.3 466.6 353.9Q465.6 353.5 464.9 352.8Q464.2 352 464 350.9L466 350.4Q466.2 351.5 467 352Q467.8 352.5 468.9 352.5Q470.2 352.5 471 351.9Q471.8 351.3 471.8 350.5Q471.8 349.9 471.4 349.4Q470.9 349 470 348.8L467.8 348.3Q466.1 347.9 465.3 347Q464.4 346.1 464.4 344.8Q464.4 343.7 465 342.8Q465.6 342 466.7 341.5Q467.8 341.1 469.1 341.1Q470.5 341.1 471.4 341.4Q472.3 341.8 472.9 342.5Q473.5 343.2 473.7 344.1L471.9 344.6Q471.6 343.9 471 343.4Q470.4 342.8 469.2 342.8Q468 342.8 467.2 343.3Q466.5 343.9 466.5 344.7Q466.5 345.4 467 345.8Q467.5 346.2 468.6 346.5L470.6 346.9Q472.3 347.4 473.1 348.2Q474 349.1 474 350.4Q474 351.5 473.3 352.4Q472.7 353.3 471.6 353.8Q470.4 354.3 468.9 354.3ZM489.5 341.2V343H482V341.2ZM484.5 354V339.5Q484.5 338.4 485 337.7Q485.5 336.9 486.4 336.5Q487.2 336.2 488.1 336.2Q488.8 336.2 489.3 336.3Q489.8 336.4 490 336.5L489.5 338.3Q489.3 338.2 489 338.1Q488.8 338.1 488.4 338.1Q487.4 338.1 487 338.6Q486.5 339 486.5 340V354ZM497.4 354.3Q495.7 354.3 494.4 353.5Q493.1 352.6 492.3 351.1Q491.6 349.7 491.6 347.7Q491.6 345.7 492.3 344.2Q493.1 342.7 494.4 341.9Q495.7 341.1 497.4 341.1Q499.2 341.1 500.5 341.9Q501.8 342.7 502.5 344.2Q503.3 345.7 503.3 347.7Q503.3 349.7 502.5 351.1Q501.8 352.6 500.5 353.5Q499.2 354.3 497.4 354.3ZM497.4 352.4Q498.7 352.4 499.5 351.8Q500.4 351.1 500.8 350Q501.2 348.9 501.2 347.7Q501.2 346.4 500.8 345.3Q500.4 344.2 499.5 343.6Q498.7 342.9 497.4 342.9Q496.1 342.9 495.3 343.6Q494.5 344.2 494.1 345.3Q493.7 346.4 493.7 347.7Q493.7 348.9 494.1 350Q494.5 351.1 495.3 351.8Q496.1 352.4 497.4 352.4ZM506.3 354V341.2H508.2V343.2H508.4Q508.7 342.2 509.6 341.6Q510.6 341 511.7 341Q511.9 341 512.2 341Q512.6 341.1 512.7 341.1V343.1Q512.6 343.1 512.3 343.1Q511.9 343 511.5 343Q510.6 343 509.9 343.4Q509.1 343.8 508.7 344.5Q508.3 345.1 508.3 346V354ZM526.9 354.3Q525.1 354.3 523.8 353.5Q522.5 352.6 521.8 351.1Q521 349.7 521 347.7Q521 345.7 521.8 344.2Q522.5 342.7 523.8 341.9Q525.1 341.1 526.9 341.1Q527.8 341.1 528.6 341.3Q529.4 341.5 530.1 342Q530.8 342.4 531.3 343.1Q531.8 343.8 532 344.6L530.1 345.1Q529.9 344.7 529.6 344.2Q529.4 343.8 528.9 343.5Q528.5 343.2 528 343.1Q527.5 342.9 526.9 342.9Q525.6 342.9 524.8 343.6Q523.9 344.2 523.5 345.3Q523.1 346.4 523.1 347.7Q523.1 348.9 523.5 350Q523.9 351.1 524.8 351.8Q525.6 352.4 526.9 352.4Q527.5 352.4 528 352.3Q528.6 352.1 529 351.8Q529.4 351.5 529.7 351Q530 350.6 530.1 350.1L532.1 350.6Q531.8 351.5 531.3 352.2Q530.8 352.8 530.2 353.3Q529.5 353.8 528.6 354Q527.8 354.3 526.9 354.3ZM540.2 354.3Q538.5 354.3 537.2 353.5Q535.9 352.6 535.2 351.1Q534.4 349.7 534.4 347.7Q534.4 345.7 535.2 344.2Q535.9 342.7 537.2 341.9Q538.5 341.1 540.2 341.1Q542 341.1 543.3 341.9Q544.6 342.7 545.4 344.2Q546.1 345.7 546.1 347.7Q546.1 349.7 545.4 351.1Q544.6 352.6 543.3 353.5Q542 354.3 540.2 354.3ZM540.2 352.4Q541.5 352.4 542.4 351.8Q543.2 351.1 543.6 350Q544 348.9 544 347.7Q544 346.4 543.6 345.3Q543.2 344.2 542.4 343.6Q541.5 342.9 540.2 342.9Q539 342.9 538.1 343.6Q537.3 344.2 536.9 345.3Q536.5 346.4 536.5 347.7Q536.5 348.9 536.9 350Q537.3 351.1 538.1 351.8Q539 352.4 540.2 352.4ZM553.9 354.3Q552.3 354.3 551.1 353.5Q549.8 352.7 549.1 351.2Q548.5 349.7 548.5 347.6Q548.5 345.6 549.2 344.1Q549.8 342.7 551.1 341.9Q552.3 341.1 553.9 341.1Q555.1 341.1 555.9 341.5Q556.6 341.9 557 342.4Q557.4 342.9 557.6 343.3H557.7V337H559.8V354H557.8V352H557.6Q557.4 352.4 557 352.9Q556.6 353.4 555.8 353.9Q555.1 354.3 553.9 354.3ZM554.2 352.4Q555.3 352.4 556.1 351.8Q556.9 351.2 557.4 350.1Q557.8 349 557.8 347.6Q557.8 346.2 557.4 345.1Q557 344.1 556.2 343.5Q555.4 342.9 554.2 342.9Q553 342.9 552.2 343.5Q551.4 344.2 551 345.2Q550.6 346.3 550.6 347.6Q550.6 349 551 350Q551.4 351.1 552.2 351.8Q553 352.4 554.2 352.4ZM563.4 354V341.2H565.5V354ZM564.5 339.1Q563.9 339.1 563.5 338.7Q563 338.3 563 337.8Q563 337.2 563.5 336.8Q563.9 336.4 564.5 336.4Q565.1 336.4 565.5 336.8Q565.9 337.2 565.9 337.8Q565.9 338.3 565.5 338.7Q565.1 339.1 564.5 339.1ZM571.2 346.3V354H569.1V341.2H571.1L571.1 344.3H570.8Q571.4 342.5 572.5 341.8Q573.5 341.1 575 341.1Q576.3 341.1 577.3 341.6Q578.2 342.1 578.8 343.2Q579.3 344.3 579.3 345.9V354H577.3V346.1Q577.3 344.6 576.5 343.7Q575.7 342.9 574.4 342.9Q573.5 342.9 572.7 343.3Q572 343.7 571.6 344.5Q571.2 345.2 571.2 346.3ZM588.1 359.1Q586.7 359.1 585.7 358.7Q584.6 358.3 583.9 357.7Q583.3 357.1 582.9 356.4L584.5 355.4Q584.8 355.7 585.2 356.2Q585.6 356.6 586.3 356.9Q587 357.3 588.1 357.3Q589.6 357.3 590.6 356.5Q591.6 355.8 591.6 354.2V351.7H591.4Q591.2 352 590.8 352.5Q590.4 353 589.7 353.4Q588.9 353.8 587.7 353.8Q586.2 353.8 585 353.1Q583.7 352.3 583 350.9Q582.3 349.6 582.3 347.5Q582.3 345.6 583 344.1Q583.7 342.7 584.9 341.9Q586.2 341.1 587.8 341.1Q589 341.1 589.7 341.5Q590.5 341.9 590.9 342.4Q591.3 342.9 591.5 343.3H591.7V341.2H593.7V354.3Q593.7 356 592.9 357Q592.2 358.1 590.9 358.6Q589.7 359.1 588.1 359.1ZM588.1 352Q589.2 352 590 351.4Q590.8 350.9 591.2 349.9Q591.6 348.9 591.6 347.5Q591.6 346.1 591.2 345.1Q590.8 344.1 590 343.5Q589.2 342.9 588.1 342.9Q586.8 342.9 586 343.5Q585.2 344.1 584.8 345.2Q584.4 346.2 584.4 347.5Q584.4 348.8 584.8 349.8Q585.2 350.8 586 351.4Q586.9 352 588.1 352ZM607.5 354.3Q606.2 354.3 605.3 353.8Q604.3 353.4 603.7 352.5Q603.1 351.6 603.1 350.4Q603.1 349.3 603.5 348.6Q604 347.9 604.7 347.5Q605.4 347.1 606.3 346.9Q607.2 346.7 608.1 346.6Q609.2 346.5 609.9 346.4Q610.7 346.3 611 346.1Q611.4 345.9 611.4 345.4V345.4Q611.4 344.6 611.1 344Q610.8 343.5 610.2 343.2Q609.6 342.9 608.7 342.9Q607.8 342.9 607.1 343.1Q606.5 343.4 606.1 343.9Q605.7 344.3 605.4 344.7L603.5 344.1Q604 342.9 604.8 342.3Q605.6 341.6 606.6 341.3Q607.6 341.1 608.6 341.1Q609.3 341.1 610.1 341.2Q610.9 341.4 611.7 341.8Q612.4 342.3 612.9 343.2Q613.4 344.1 613.4 345.6V354H611.4V352.3H611.3Q611 352.7 610.6 353.2Q610.1 353.7 609.3 354Q608.5 354.3 607.5 354.3ZM607.8 352.5Q609 352.5 609.7 352Q610.5 351.6 610.9 350.9Q611.4 350.2 611.4 349.4V347.6Q611.2 347.8 610.8 347.9Q610.4 348 609.8 348.1Q609.3 348.2 608.8 348.2Q608.3 348.3 608 348.3Q607.2 348.4 606.6 348.7Q606 348.9 605.6 349.3Q605.2 349.7 605.2 350.5Q605.2 351.1 605.5 351.6Q605.9 352 606.5 352.3Q607 352.5 607.8 352.5ZM622.2 359.1Q620.8 359.1 619.8 358.7Q618.7 358.3 618 357.7Q617.4 357.1 617 356.4L618.6 355.4Q618.9 355.7 619.3 356.2Q619.7 356.6 620.4 356.9Q621.1 357.3 622.2 357.3Q623.7 357.3 624.7 356.5Q625.7 355.8 625.7 354.2V351.7H625.5Q625.3 352 624.9 352.5Q624.5 353 623.8 353.4Q623 353.8 621.8 353.8Q620.3 353.8 619.1 353.1Q617.8 352.3 617.1 350.9Q616.4 349.6 616.4 347.5Q616.4 345.6 617.1 344.1Q617.8 342.7 619 341.9Q620.3 341.1 621.9 341.1Q623.1 341.1 623.8 341.5Q624.6 341.9 625 342.4Q625.4 342.9 625.6 343.3H625.8V341.2H627.8V354.3Q627.8 356 627 357Q626.3 358.1 625 358.6Q623.8 359.1 622.2 359.1ZM622.2 352Q623.3 352 624.1 351.4Q624.9 350.9 625.3 349.9Q625.7 348.9 625.7 347.5Q625.7 346.1 625.3 345.1Q624.9 344.1 624.1 343.5Q623.3 342.9 622.2 342.9Q620.9 342.9 620.1 343.5Q619.3 344.1 618.9 345.2Q618.5 346.2 618.5 347.5Q618.5 348.8 618.9 349.8Q619.3 350.8 620.1 351.4Q621 352 622.2 352ZM636.8 354.3Q634.9 354.3 633.6 353.5Q632.2 352.6 631.5 351.2Q630.8 349.7 630.8 347.7Q630.8 345.7 631.5 344.2Q632.2 342.7 633.5 341.9Q634.8 341.1 636.5 341.1Q637.6 341.1 638.5 341.4Q639.5 341.7 640.3 342.5Q641.1 343.2 641.6 344.5Q642.1 345.7 642.1 347.4V348.3H632.2V346.6H641L640 347.2Q640 345.9 639.6 345Q639.2 344 638.5 343.4Q637.7 342.9 636.5 342.9Q635.4 342.9 634.6 343.5Q633.7 344 633.3 344.9Q632.9 345.8 632.9 346.9V348Q632.9 349.4 633.4 350.4Q633.8 351.4 634.7 351.9Q635.6 352.4 636.8 352.4Q637.5 352.4 638.2 352.2Q638.8 352 639.2 351.6Q639.7 351.1 639.9 350.5L641.9 351Q641.6 352 640.9 352.7Q640.2 353.5 639.1 353.9Q638.1 354.3 636.8 354.3ZM647.1 346.3V354H645.1V341.2H647L647 344.3H646.8Q647.3 342.5 648.4 341.8Q649.5 341.1 651 341.1Q652.2 341.1 653.2 341.6Q654.2 342.1 654.7 343.2Q655.3 344.3 655.3 345.9V354H653.2V346.1Q653.2 344.6 652.4 343.7Q651.7 342.9 650.3 342.9Q649.4 342.9 648.7 343.3Q648 343.7 647.5 344.5Q647.1 345.2 647.1 346.3ZM663.9 341.2V343H657.3V341.2ZM659.2 338.2H661.3V350.7Q661.3 351.5 661.6 351.9Q662 352.3 662.8 352.3Q663 352.3 663.3 352.3Q663.6 352.2 663.9 352.2L664.3 353.9Q664 354 663.6 354.1Q663.1 354.2 662.7 354.2Q661.1 354.2 660.2 353.3Q659.2 352.4 659.2 350.8ZM670.9 354.3Q669.6 354.3 668.6 353.9Q667.5 353.5 666.9 352.8Q666.2 352 666 350.9L667.9 350.4Q668.2 351.5 669 352Q669.7 352.5 670.9 352.5Q672.2 352.5 673 351.9Q673.8 351.3 673.8 350.5Q673.8 349.9 673.3 349.4Q672.9 349 671.9 348.8L669.8 348.3Q668.1 347.9 667.2 347Q666.4 346.1 666.4 344.8Q666.4 343.7 667 342.8Q667.6 342 668.7 341.5Q669.7 341.1 671.1 341.1Q672.4 341.1 673.3 341.4Q674.3 341.8 674.8 342.5Q675.4 343.2 675.7 344.1L673.8 344.6Q673.6 343.9 673 343.4Q672.4 342.8 671.1 342.8Q670 342.8 669.2 343.3Q668.5 343.9 668.5 344.7Q668.5 345.4 669 345.8Q669.5 346.2 670.6 346.5L672.5 346.9Q674.3 347.4 675.1 348.2Q675.9 349.1 675.9 350.4Q675.9 351.5 675.3 352.4Q674.7 353.3 673.5 353.8Q672.4 354.3 670.9 354.3ZM680.5 354.1Q679.8 354.1 679.4 353.7Q678.9 353.2 678.9 352.6Q678.9 352 679.4 351.5Q679.8 351.1 680.5 351.1Q681.1 351.1 681.6 351.5Q682 352 682 352.6Q682 353.2 681.6 353.7Q681.1 354.1 680.5 354.1Z" fill="#52525b" /><path aria-label="Intent to implementation: ready, then go." d="M67.9 378.4V394H65.9V378.4ZM73.3 387V394H71.4V382.3H73.2L73.2 385.1H73Q73.5 383.5 74.5 382.8Q75.5 382.1 76.8 382.1Q78 382.1 78.9 382.6Q79.8 383.1 80.3 384.1Q80.8 385.1 80.8 386.6V394H78.9V386.7Q78.9 385.4 78.2 384.6Q77.5 383.8 76.3 383.8Q75.4 383.8 74.8 384.2Q74.1 384.6 73.7 385.3Q73.3 386 73.3 387ZM88.7 382.3V383.9H82.7V382.3ZM84.4 379.5H86.3V391Q86.3 391.7 86.6 392.1Q86.9 392.5 87.7 392.5Q87.9 392.5 88.1 392.4Q88.4 392.4 88.7 392.3L89 393.9Q88.8 394 88.4 394.1Q88 394.1 87.6 394.1Q86.1 394.1 85.3 393.3Q84.4 392.5 84.4 391.1ZM96.1 394.3Q94.4 394.3 93.1 393.5Q91.9 392.7 91.2 391.4Q90.6 390 90.6 388.2Q90.6 386.4 91.2 385.1Q91.9 383.7 93.1 382.9Q94.2 382.1 95.8 382.1Q96.8 382.1 97.7 382.4Q98.6 382.8 99.3 383.4Q100.1 384.1 100.5 385.2Q100.9 386.4 100.9 388V388.8H91.8V387.2H99.9L99 387.8Q99 386.6 98.7 385.7Q98.3 384.8 97.6 384.3Q96.9 383.8 95.8 383.8Q94.8 383.8 94 384.3Q93.3 384.8 92.9 385.7Q92.5 386.5 92.5 387.5V388.5Q92.5 389.8 92.9 390.7Q93.4 391.6 94.2 392.1Q95 392.6 96.1 392.6Q96.8 392.6 97.3 392.4Q97.9 392.2 98.3 391.8Q98.7 391.4 98.9 390.8L100.8 391.3Q100.5 392.2 99.8 392.8Q99.2 393.5 98.2 393.9Q97.3 394.3 96.1 394.3ZM105.5 387V394H103.6V382.3H105.5L105.5 385.1H105.2Q105.7 383.5 106.7 382.8Q107.7 382.1 109.1 382.1Q110.2 382.1 111.1 382.6Q112 383.1 112.5 384.1Q113 385.1 113 386.6V394H111.1V386.7Q111.1 385.4 110.4 384.6Q109.7 383.8 108.5 383.8Q107.7 383.8 107 384.2Q106.3 384.6 105.9 385.3Q105.5 386 105.5 387ZM120.9 382.3V383.9H114.9V382.3ZM116.6 379.5H118.5V391Q118.5 391.7 118.9 392.1Q119.2 392.5 119.9 392.5Q120.1 392.5 120.4 392.4Q120.7 392.4 120.9 392.3L121.3 393.9Q121 394 120.6 394.1Q120.2 394.1 119.9 394.1Q118.3 394.1 117.5 393.3Q116.6 392.5 116.6 391.1ZM134 382.3V383.9H127.9V382.3ZM129.7 379.5H131.6V391Q131.6 391.7 131.9 392.1Q132.2 392.5 133 392.5Q133.2 392.5 133.4 392.4Q133.7 392.4 133.9 392.3L134.3 393.9Q134 394 133.7 394.1Q133.3 394.1 132.9 394.1Q131.4 394.1 130.6 393.3Q129.7 392.5 129.7 391.1ZM141.2 394.3Q139.6 394.3 138.4 393.5Q137.2 392.7 136.5 391.4Q135.9 390 135.9 388.2Q135.9 386.4 136.5 385Q137.2 383.6 138.4 382.9Q139.6 382.1 141.2 382.1Q142.8 382.1 144 382.9Q145.2 383.6 145.9 385Q146.5 386.4 146.5 388.2Q146.5 390 145.9 391.4Q145.2 392.7 144 393.5Q142.8 394.3 141.2 394.3ZM141.2 392.6Q142.4 392.6 143.1 392Q143.9 391.3 144.3 390.4Q144.6 389.4 144.6 388.2Q144.6 387 144.3 386Q143.9 385 143.1 384.4Q142.4 383.8 141.2 383.8Q140 383.8 139.3 384.4Q138.5 385 138.1 386Q137.8 387 137.8 388.2Q137.8 389.4 138.1 390.4Q138.5 391.3 139.3 392Q140 392.6 141.2 392.6ZM155.3 394V382.3H157.2V394ZM156.3 380.4Q155.7 380.4 155.4 380Q155 379.6 155 379.1Q155 378.6 155.4 378.2Q155.7 377.9 156.3 377.9Q156.8 377.9 157.2 378.2Q157.6 378.6 157.6 379.1Q157.6 379.6 157.2 380Q156.8 380.4 156.3 380.4ZM160.5 394V382.3H162.4L162.4 384.9H162.2Q162.5 383.9 163 383.3Q163.5 382.7 164.2 382.4Q164.9 382.1 165.7 382.1Q166.9 382.1 167.7 382.9Q168.5 383.6 168.7 384.9H168.5Q168.7 384 169.3 383.4Q169.8 382.8 170.6 382.4Q171.4 382.1 172.3 382.1Q173.4 382.1 174.2 382.5Q175 383 175.5 383.8Q176 384.7 176 386.1V394H174.1V386.1Q174.1 384.9 173.4 384.3Q172.7 383.8 171.8 383.8Q171 383.8 170.4 384.1Q169.8 384.4 169.5 385Q169.2 385.6 169.2 386.3V394H167.3V386Q167.3 385 166.7 384.4Q166 383.8 165 383.8Q164.4 383.8 163.8 384.1Q163.2 384.4 162.8 385.1Q162.4 385.7 162.4 386.6V394ZM179.3 398.4V382.3H181.2V384.2H181.4Q181.6 383.8 181.9 383.4Q182.3 382.9 183 382.5Q183.6 382.1 184.8 382.1Q186.2 382.1 187.4 382.9Q188.5 383.6 189.1 385Q189.7 386.3 189.7 388.2Q189.7 390 189.1 391.4Q188.5 392.8 187.4 393.5Q186.2 394.3 184.8 394.3Q183.7 394.3 183 393.9Q182.3 393.5 181.9 393Q181.6 392.5 181.4 392.2H181.2V398.4ZM184.5 392.6Q185.6 392.6 186.3 392Q187.1 391.4 187.4 390.4Q187.8 389.4 187.8 388.2Q187.8 386.9 187.5 386Q187.1 385 186.3 384.4Q185.6 383.8 184.5 383.8Q183.4 383.8 182.7 384.4Q181.9 384.9 181.6 385.9Q181.2 386.9 181.2 388.2Q181.2 389.5 181.6 390.4Q182 391.4 182.7 392Q183.4 392.6 184.5 392.6ZM194.4 378.4V394H192.5V378.4ZM202.6 394.3Q200.9 394.3 199.7 393.5Q198.4 392.7 197.8 391.4Q197.1 390 197.1 388.2Q197.1 386.4 197.8 385.1Q198.4 383.7 199.6 382.9Q200.8 382.1 202.4 382.1Q203.3 382.1 204.2 382.4Q205.1 382.8 205.9 383.4Q206.6 384.1 207.1 385.2Q207.5 386.4 207.5 388V388.8H198.4V387.2H206.5L205.6 387.8Q205.6 386.6 205.2 385.7Q204.9 384.8 204.2 384.3Q203.4 383.8 202.4 383.8Q201.3 383.8 200.6 384.3Q199.8 384.8 199.4 385.7Q199 386.5 199 387.5V388.5Q199 389.8 199.5 390.7Q199.9 391.6 200.7 392.1Q201.6 392.6 202.6 392.6Q203.3 392.6 203.9 392.4Q204.4 392.2 204.9 391.8Q205.3 391.4 205.5 390.8L207.3 391.3Q207 392.2 206.4 392.8Q205.7 393.5 204.8 393.9Q203.8 394.3 202.6 394.3ZM210.2 394V382.3H212L212 384.9H211.9Q212.1 383.9 212.7 383.3Q213.2 382.7 213.9 382.4Q214.6 382.1 215.3 382.1Q216.6 382.1 217.4 382.9Q218.2 383.6 218.4 384.9H218.2Q218.4 384 218.9 383.4Q219.5 382.8 220.3 382.4Q221.1 382.1 222 382.1Q223 382.1 223.9 382.5Q224.7 383 225.2 383.8Q225.7 384.7 225.7 386.1V394H223.8V386.1Q223.8 384.9 223.1 384.3Q222.4 383.8 221.4 383.8Q220.7 383.8 220.1 384.1Q219.5 384.4 219.2 385Q218.9 385.6 218.9 386.3V394H217V386Q217 385 216.4 384.4Q215.7 383.8 214.7 383.8Q214 383.8 213.4 384.1Q212.8 384.4 212.5 385.1Q212.1 385.7 212.1 386.6V394ZM233.9 394.3Q232.2 394.3 231 393.5Q229.8 392.7 229.1 391.4Q228.4 390 228.4 388.2Q228.4 386.4 229.1 385.1Q229.7 383.7 230.9 382.9Q232.1 382.1 233.7 382.1Q234.6 382.1 235.6 382.4Q236.5 382.8 237.2 383.4Q237.9 384.1 238.4 385.2Q238.8 386.4 238.8 388V388.8H229.7V387.2H237.8L236.9 387.8Q236.9 386.6 236.6 385.7Q236.2 384.8 235.5 384.3Q234.8 383.8 233.7 383.8Q232.7 383.8 231.9 384.3Q231.1 384.8 230.7 385.7Q230.3 386.5 230.3 387.5V388.5Q230.3 389.8 230.8 390.7Q231.2 391.6 232.1 392.1Q232.9 392.6 233.9 392.6Q234.6 392.6 235.2 392.4Q235.8 392.2 236.2 391.8Q236.6 391.4 236.8 390.8L238.6 391.3Q238.4 392.2 237.7 392.8Q237.1 393.5 236.1 393.9Q235.1 394.3 233.9 394.3ZM243.4 387V394H241.5V382.3H243.3L243.3 385.1H243.1Q243.6 383.5 244.6 382.8Q245.6 382.1 246.9 382.1Q248.1 382.1 249 382.6Q249.9 383.1 250.4 384.1Q250.9 385.1 250.9 386.6V394H249V386.7Q249 385.4 248.3 384.6Q247.6 383.8 246.4 383.8Q245.5 383.8 244.9 384.2Q244.2 384.6 243.8 385.3Q243.4 386 243.4 387ZM258.8 382.3V383.9H252.8V382.3ZM254.5 379.5H256.4V391Q256.4 391.7 256.7 392.1Q257 392.5 257.8 392.5Q258 392.5 258.2 392.4Q258.5 392.4 258.8 392.3L259.1 393.9Q258.9 394 258.5 394.1Q258.1 394.1 257.7 394.1Q256.2 394.1 255.4 393.3Q254.5 392.5 254.5 391.1ZM264.5 394.3Q263.4 394.3 262.5 393.9Q261.6 393.4 261.1 392.6Q260.5 391.8 260.5 390.7Q260.5 389.7 260.9 389Q261.3 388.4 262 388Q262.6 387.7 263.5 387.5Q264.3 387.3 265.1 387.2Q266.1 387.1 266.8 387Q267.4 386.9 267.8 386.8Q268.1 386.6 268.1 386.1V386.1Q268.1 385.4 267.8 384.8Q267.5 384.3 267 384.1Q266.5 383.8 265.6 383.8Q264.8 383.8 264.2 384.1Q263.6 384.3 263.2 384.7Q262.9 385.1 262.7 385.5L260.9 384.9Q261.3 383.8 262.1 383.2Q262.8 382.6 263.8 382.4Q264.7 382.1 265.6 382.1Q266.2 382.1 266.9 382.3Q267.7 382.4 268.4 382.8Q269.1 383.3 269.5 384.1Q270 384.9 270 386.3V394H268.1V392.4H268Q267.8 392.8 267.4 393.3Q266.9 393.7 266.2 394Q265.5 394.3 264.5 394.3ZM264.8 392.6Q265.9 392.6 266.6 392.2Q267.3 391.8 267.7 391.1Q268.1 390.5 268.1 389.8V388.1Q268 388.3 267.6 388.4Q267.2 388.5 266.7 388.6Q266.2 388.7 265.7 388.7Q265.3 388.8 265 388.8Q264.3 388.9 263.7 389.1Q263.1 389.3 262.8 389.7Q262.4 390.1 262.4 390.8Q262.4 391.4 262.7 391.8Q263 392.2 263.6 392.4Q264.1 392.6 264.8 392.6ZM277.9 382.3V383.9H271.8V382.3ZM273.6 379.5H275.5V391Q275.5 391.7 275.8 392.1Q276.1 392.5 276.9 392.5Q277.1 392.5 277.3 392.4Q277.6 392.4 277.8 392.3L278.2 393.9Q277.9 394 277.6 394.1Q277.2 394.1 276.8 394.1Q275.3 394.1 274.5 393.3Q273.6 392.5 273.6 391.1ZM280.3 394V382.3H282.2V394ZM281.3 380.4Q280.7 380.4 280.3 380Q280 379.6 280 379.1Q280 378.6 280.3 378.2Q280.7 377.9 281.3 377.9Q281.8 377.9 282.2 378.2Q282.6 378.6 282.6 379.1Q282.6 379.6 282.2 380Q281.8 380.4 281.3 380.4ZM290.3 394.3Q288.7 394.3 287.5 393.5Q286.3 392.7 285.6 391.4Q284.9 390 284.9 388.2Q284.9 386.4 285.6 385Q286.3 383.6 287.5 382.9Q288.7 382.1 290.3 382.1Q291.9 382.1 293.1 382.9Q294.3 383.6 295 385Q295.6 386.4 295.6 388.2Q295.6 390 295 391.4Q294.3 392.7 293.1 393.5Q291.9 394.3 290.3 394.3ZM290.3 392.6Q291.5 392.6 292.2 392Q293 391.3 293.4 390.4Q293.7 389.4 293.7 388.2Q293.7 387 293.4 386Q293 385 292.2 384.4Q291.5 383.8 290.3 383.8Q289.1 383.8 288.4 384.4Q287.6 385 287.2 386Q286.9 387 286.9 388.2Q286.9 389.4 287.2 390.4Q287.6 391.3 288.4 392Q289.1 392.6 290.3 392.6ZM300.3 387V394H298.4V382.3H300.2L300.2 385.1H299.9Q300.5 383.5 301.5 382.8Q302.5 382.1 303.8 382.1Q305 382.1 305.9 382.6Q306.8 383.1 307.3 384.1Q307.8 385.1 307.8 386.6V394H305.9V386.7Q305.9 385.4 305.2 384.6Q304.5 383.8 303.2 383.8Q302.4 383.8 301.7 384.2Q301 384.6 300.7 385.3Q300.3 386 300.3 387ZM312.5 394.1Q311.9 394.1 311.5 393.7Q311.1 393.3 311.1 392.7Q311.1 392.1 311.5 391.7Q311.9 391.3 312.5 391.3Q313.1 391.3 313.5 391.7Q313.9 392.1 313.9 392.7Q313.9 393.3 313.5 393.7Q313.1 394.1 312.5 394.1ZM312.5 385.7Q311.9 385.7 311.5 385.2Q311.1 384.8 311.1 384.2Q311.1 383.7 311.5 383.2Q311.9 382.8 312.5 382.8Q313.1 382.8 313.5 383.2Q313.9 383.7 313.9 384.2Q313.9 384.8 313.5 385.2Q313.1 385.7 312.5 385.7ZM323.3 394V382.3H325.1V384.1H325.2Q325.6 383.2 326.4 382.7Q327.2 382.1 328.3 382.1Q328.5 382.1 328.8 382.1Q329.1 382.1 329.2 382.1V384Q329.2 384 328.8 384Q328.5 383.9 328.1 383.9Q327.3 383.9 326.6 384.3Q325.9 384.6 325.6 385.3Q325.2 385.9 325.2 386.7V394ZM336.3 394.3Q334.6 394.3 333.4 393.5Q332.1 392.7 331.5 391.4Q330.8 390 330.8 388.2Q330.8 386.4 331.5 385.1Q332.1 383.7 333.3 382.9Q334.5 382.1 336.1 382.1Q337 382.1 337.9 382.4Q338.8 382.8 339.6 383.4Q340.3 384.1 340.7 385.2Q341.2 386.4 341.2 388V388.8H332.1V387.2H340.2L339.3 387.8Q339.3 386.6 338.9 385.7Q338.6 384.8 337.9 384.3Q337.1 383.8 336.1 383.8Q335 383.8 334.3 384.3Q333.5 384.8 333.1 385.7Q332.7 386.5 332.7 387.5V388.5Q332.7 389.8 333.2 390.7Q333.6 391.6 334.4 392.1Q335.2 392.6 336.3 392.6Q337 392.6 337.6 392.4Q338.1 392.2 338.5 391.8Q339 391.4 339.2 390.8L341 391.3Q340.7 392.2 340.1 392.8Q339.4 393.5 338.5 393.9Q337.5 394.3 336.3 394.3ZM347.2 394.3Q346.1 394.3 345.2 393.9Q344.2 393.4 343.7 392.6Q343.2 391.8 343.2 390.7Q343.2 389.7 343.6 389Q344 388.4 344.6 388Q345.3 387.7 346.1 387.5Q346.9 387.3 347.7 387.2Q348.8 387.1 349.4 387Q350.1 386.9 350.4 386.8Q350.7 386.6 350.7 386.1V386.1Q350.7 385.4 350.5 384.8Q350.2 384.3 349.7 384.1Q349.1 383.8 348.3 383.8Q347.5 383.8 346.9 384.1Q346.3 384.3 345.9 384.7Q345.5 385.1 345.3 385.5L343.5 384.9Q344 383.8 344.7 383.2Q345.5 382.6 346.4 382.4Q347.3 382.1 348.2 382.1Q348.8 382.1 349.6 382.3Q350.3 382.4 351 382.8Q351.7 383.3 352.2 384.1Q352.6 384.9 352.6 386.3V394H350.8V392.4H350.7Q350.5 392.8 350 393.3Q349.6 393.7 348.9 394Q348.2 394.3 347.2 394.3ZM347.5 392.6Q348.5 392.6 349.3 392.2Q350 391.8 350.4 391.1Q350.7 390.5 350.7 389.8V388.1Q350.6 388.3 350.2 388.4Q349.9 388.5 349.4 388.6Q348.9 388.7 348.4 388.7Q347.9 388.8 347.7 388.8Q347 388.9 346.4 389.1Q345.8 389.3 345.4 389.7Q345.1 390.1 345.1 390.8Q345.1 391.4 345.4 391.8Q345.7 392.2 346.3 392.4Q346.8 392.6 347.5 392.6ZM360.3 394.3Q358.9 394.3 357.8 393.5Q356.6 392.8 356 391.4Q355.4 390 355.4 388.2Q355.4 386.3 356 385Q356.6 383.6 357.8 382.9Q358.9 382.1 360.4 382.1Q361.5 382.1 362.2 382.5Q362.8 382.9 363.2 383.4Q363.6 383.8 363.7 384.2H363.9V378.4H365.8V394H364V392.2H363.7Q363.6 392.5 363.2 393Q362.8 393.5 362.1 393.9Q361.5 394.3 360.3 394.3ZM360.6 392.6Q361.7 392.6 362.4 392Q363.2 391.4 363.5 390.4Q363.9 389.5 363.9 388.2Q363.9 386.9 363.5 385.9Q363.2 384.9 362.4 384.4Q361.7 383.8 360.6 383.8Q359.5 383.8 358.8 384.4Q358 385 357.7 386Q357.3 386.9 357.3 388.2Q357.3 389.4 357.7 390.4Q358 391.4 358.8 392Q359.5 392.6 360.6 392.6ZM368.9 398.2 369.4 396.6 369.6 396.7Q370.2 396.8 370.6 396.7Q371.1 396.7 371.5 396.3Q371.9 395.9 372.1 395L372.5 394.1L368 382.3H370.1L372.6 389.2Q373 390.3 373.2 391.4Q373.5 392.5 373.8 393.5H373.1Q373.4 392.5 373.7 391.4Q374 390.3 374.4 389.2L376.9 382.3H378.9L373.8 395.8Q373.4 396.7 372.9 397.3Q372.4 397.9 371.8 398.2Q371.1 398.5 370.3 398.5Q369.8 398.5 369.4 398.4Q369.1 398.3 368.9 398.2ZM380.8 397.8 381.8 391.8H383.9L382.3 397.8ZM398 382.3V383.9H391.9V382.3ZM393.7 379.5H395.6V391Q395.6 391.7 395.9 392.1Q396.2 392.5 397 392.5Q397.1 392.5 397.4 392.4Q397.7 392.4 397.9 392.3L398.3 393.9Q398 394 397.7 394.1Q397.3 394.1 396.9 394.1Q395.4 394.1 394.5 393.3Q393.7 392.5 393.7 391.1ZM402.3 387V394H400.4V378.4H402.3V385.1H402Q402.5 383.5 403.5 382.8Q404.5 382.1 405.8 382.1Q407 382.1 407.9 382.6Q408.8 383.1 409.3 384.1Q409.8 385.1 409.8 386.6V394H407.9V386.7Q407.9 385.4 407.2 384.6Q406.5 383.8 405.2 383.8Q404.4 383.8 403.7 384.2Q403.1 384.6 402.7 385.3Q402.3 386 402.3 387ZM418 394.3Q416.3 394.3 415.1 393.5Q413.9 392.7 413.2 391.4Q412.5 390 412.5 388.2Q412.5 386.4 413.2 385.1Q413.8 383.7 415 382.9Q416.2 382.1 417.8 382.1Q418.7 382.1 419.6 382.4Q420.6 382.8 421.3 383.4Q422 384.1 422.5 385.2Q422.9 386.4 422.9 388V388.8H413.8V387.2H421.9L421 387.8Q421 386.6 420.7 385.7Q420.3 384.8 419.6 384.3Q418.9 383.8 417.8 383.8Q416.7 383.8 416 384.3Q415.2 384.8 414.8 385.7Q414.4 386.5 414.4 387.5V388.5Q414.4 389.8 414.9 390.7Q415.3 391.6 416.2 392.1Q417 392.6 418 392.6Q418.7 392.6 419.3 392.4Q419.9 392.2 420.3 391.8Q420.7 391.4 420.9 390.8L422.7 391.3Q422.5 392.2 421.8 392.8Q421.2 393.5 420.2 393.9Q419.2 394.3 418 394.3ZM427.5 387V394H425.6V382.3H427.4L427.4 385.1H427.2Q427.7 383.5 428.7 382.8Q429.7 382.1 431 382.1Q432.2 382.1 433.1 382.6Q434 383.1 434.5 384.1Q435 385.1 435 386.6V394H433.1V386.7Q433.1 385.4 432.4 384.6Q431.7 383.8 430.5 383.8Q429.6 383.8 429 384.2Q428.3 384.6 427.9 385.3Q427.5 386 427.5 387ZM449.1 398.6Q447.8 398.6 446.8 398.3Q445.9 398 445.3 397.4Q444.6 396.9 444.3 396.2L445.8 395.3Q446.1 395.6 446.4 396Q446.8 396.4 447.4 396.7Q448.1 397 449.1 397Q450.5 397 451.4 396.3Q452.3 395.6 452.3 394.2V391.9H452.1Q451.9 392.2 451.6 392.6Q451.2 393.1 450.5 393.5Q449.9 393.8 448.7 393.8Q447.3 393.8 446.2 393.1Q445.1 392.5 444.4 391.2Q443.8 389.9 443.8 388.1Q443.8 386.3 444.4 384.9Q445.1 383.6 446.2 382.9Q447.3 382.1 448.8 382.1Q449.9 382.1 450.6 382.5Q451.3 382.9 451.6 383.4Q452 383.8 452.2 384.2H452.4V382.3H454.2V394.3Q454.2 395.8 453.5 396.8Q452.8 397.7 451.7 398.2Q450.5 398.6 449.1 398.6ZM449 392.1Q450.1 392.1 450.8 391.6Q451.6 391.2 452 390.2Q452.3 389.3 452.3 388Q452.3 386.8 452 385.8Q451.6 384.9 450.9 384.4Q450.1 383.8 449 383.8Q447.9 383.8 447.2 384.4Q446.4 385 446.1 385.9Q445.7 386.9 445.7 388Q445.7 389.3 446.1 390.2Q446.4 391.1 447.2 391.6Q447.9 392.1 449 392.1ZM462.3 394.3Q460.7 394.3 459.5 393.5Q458.3 392.7 457.6 391.4Q456.9 390 456.9 388.2Q456.9 386.4 457.6 385Q458.3 383.6 459.5 382.9Q460.7 382.1 462.3 382.1Q463.9 382.1 465.1 382.9Q466.3 383.6 467 385Q467.6 386.4 467.6 388.2Q467.6 390 467 391.4Q466.3 392.7 465.1 393.5Q463.9 394.3 462.3 394.3ZM462.3 392.6Q463.5 392.6 464.2 392Q465 391.3 465.4 390.4Q465.7 389.4 465.7 388.2Q465.7 387 465.4 386Q465 385 464.2 384.4Q463.5 383.8 462.3 383.8Q461.1 383.8 460.3 384.4Q459.6 385 459.2 386Q458.9 387 458.9 388.2Q458.9 389.4 459.2 390.4Q459.6 391.3 460.3 392Q461.1 392.6 462.3 392.6ZM471.8 394.1Q471.2 394.1 470.8 393.7Q470.4 393.3 470.4 392.7Q470.4 392.1 470.8 391.7Q471.2 391.3 471.8 391.3Q472.4 391.3 472.8 391.7Q473.2 392.1 473.2 392.7Q473.2 393.3 472.8 393.7Q472.4 394.1 471.8 394.1Z" fill="#71717a" /><circle cx="1070" cy="226" r="145" fill="none" stroke="#e4e4e7" clip-path="url(#clip)" /><circle cx="1070" cy="226" r="184" fill="none" stroke="#e4e4e7" clip-path="url(#clip)" /><circle cx="1070" cy="226" r="224" fill="none" stroke="#e4e4e7" clip-path="url(#clip)" /><rect x="951" y="107" width="238" height="238" rx="36" fill="#09090b" stroke="#27272a" /><g transform="translate(944 100) scale(.2461)">
  
  
  <defs>
    <radialGradient id="heat" cx="0" cy="0" r="1" gradientTransform="matrix(290 0 0 290 568 507)" gradientUnits="userSpaceOnUse">
      <stop offset="0" stop-color="#FCD34D" stop-opacity="0.95" />
      <stop offset="0.34" stop-color="#F59E0B" stop-opacity="0.34" />
      <stop offset="1" stop-color="#F59E0B" stop-opacity="0" />
    </radialGradient>
    <linearGradient id="steel" x1="154" y1="294" x2="874" y2="730" gradientUnits="userSpaceOnUse">
      <stop offset="0" stop-color="#E0F2FE" />
      <stop offset="0.45" stop-color="#F8FAFC" />
      <stop offset="1" stop-color="#CFFAFE" />
    </linearGradient>
    <filter id="glow" x="392" y="346" width="360" height="332" color-interpolation-filters="sRGB" filterUnits="userSpaceOnUse">
      <feDropShadow dx="0" dy="0" stdDeviation="24" flood-color="#F59E0B" flood-opacity="0.72" />
    </filter>
  </defs>
  <circle cx="568" cy="507" r="302" fill="url(#heat)" />
  <g>
    <path d="M204 336h214M204 512h260M204 688h214" fill="none" stroke="#BAE6FD" stroke-linecap="round" stroke-width="54" />
    <path d="M420 336l124 176-124 176" fill="none" stroke="url(#steel)" stroke-linecap="round" stroke-linejoin="round" stroke-width="66" />
    <path d="M544 512h142" fill="none" stroke="#FDE68A" stroke-linecap="round" stroke-width="62" />
    <path d="M686 512l111-116M686 512l111 116M686 512h136" fill="none" stroke="#ECFEFF" stroke-linecap="round" stroke-linejoin="round" stroke-width="52" />
  </g>
  <g filter="url(#glow)">
    <circle cx="544" cy="512" r="46" fill="#FBBF24" />
    <circle cx="544" cy="512" r="19" fill="#0F172A" fill-opacity="0.35" />
  </g>
  <path d="M318 238l50-50M653 793l62 62M794 237l-45 60M248 786l-40 40" stroke="#FDE68A" stroke-linecap="round" stroke-width="24" />
</g><circle class="pulse" cx="1078" cy="226" r="21" fill="#d97706" opacity=".12" /><g class="m1" style="offset-distance:0%"><circle r="15" fill="#d97706" opacity=".12" /><circle r="6" fill="#d97706" /></g></svg>